<svg xmlns="http://www.w3.org/2000/svg" width="622.265" height="462.643" viewBox="0 0 622.265 462.643">
  <g id="中国结" transform="translate(-202.675 -199.997)">
    <path id="路径_2" data-name="路径 2" d="M604.452,362.378l-21.719-21.724,39.91-39.9a41.072,41.072,0,0,0-58.092-58.076l-39.9,39.9-21.724-21.724,39.9-39.9a71.789,71.789,0,1,1,101.53,101.519ZM753.193,503.04a71.3,71.3,0,0,1-50.765-20.956l-50.765-50.765,50.76-50.76a71.792,71.792,0,1,1,50.77,122.481Zm-58.081-71.721,29.041,29.041a41,41,0,1,0,0-58.076l-29.041,29.036Z" fill="#10B981"/>
    <path id="路径_3" data-name="路径 3" d="M423.132,362.378l-39.9-39.9A71.785,71.785,0,0,1,484.756,220.959l39.9,39.9-21.724,21.719-39.9-39.9a41.068,41.068,0,0,0-58.076,58.081l39.9,39.9-21.729,21.714Z" fill="#10B981"/>
    <path id="路径_4" data-name="路径 4" d="M524.646,260.849l79.805,79.8-21.724,21.724-79.8-79.8Z" fill="#10B981"/>
    <path id="路径_5" data-name="路径 5" d="M502.927,260.854l21.719,21.714-79.8,79.8-21.719-21.719Zm159.647,159.59L684.3,442.168l-79.8,79.8-21.724-21.724Z" fill="#10B981"/>
    <path id="路径_6" data-name="路径 6" d="M604.452,340.654l79.8,79.8-21.719,21.714-79.8-79.8Z" fill="#10B981"/>
    <path id="路径_7" data-name="路径 7" d="M582.738,340.644l21.729,21.719-79.79,79.811-21.724-21.719ZM365.061,420.454l79.8,79.8-21.719,21.719-79.8-79.8Z" fill="#10B981"/>
    <path id="路径_8" data-name="路径 8" d="M423.132,340.654l21.719,21.719-79.8,79.8-21.719-21.719Z" fill="#10B981"/>
    <path id="路径_9" data-name="路径 9" d="M444.851,340.649l79.8,79.8-21.719,21.719-79.8-79.8Zm79.811,79.805,79.8,79.8-21.719,21.724-79.805-79.8Z" fill="#10B981"/>
    <path id="路径_10" data-name="路径 10" d="M502.968,420.454l21.724,21.719-79.8,79.8L423.168,500.25Zm90.624,242.186a71.268,71.268,0,0,1-50.76-20.961l-39.9-39.9,21.724-21.719,39.9,39.9a41.073,41.073,0,0,0,58.092-58.081l-39.91-39.9,21.719-21.724,39.91,39.905a71.721,71.721,0,0,1-50.775,122.481Z" fill="#10B981"/>
    <path id="路径_11" data-name="路径 11" d="M582.743,500.244l21.724,21.719-79.785,79.816L502.953,580.06Zm-308.352,2.8a71.721,71.721,0,1,1,50.765-122.486l50.755,50.76-50.755,50.765A71.288,71.288,0,0,1,274.391,503.04Zm0-112.722a41,41,0,1,0,29.051,70.031l29.036-29.036-29.036-29.041A40.822,40.822,0,0,0,274.391,390.318ZM434,662.641a71.785,71.785,0,0,1-50.76-122.481l39.9-39.9,21.724,21.719-39.9,39.905a41.068,41.068,0,0,0,58.076,58.081l39.9-39.9,21.724,21.719-39.9,39.9A71.293,71.293,0,0,1,434,662.641Z" fill="#10B981"/>
    <path id="路径_12" data-name="路径 12" d="M444.851,500.25l79.8,79.8-21.719,21.724-79.8-79.8Z" fill="#10B981"/>
  </g>
</svg>
